<?xml version="1.0" standalone="no"?>
<!DOCTYPE svg PUBLIC "-//W3C//DTD SVG 20010904//EN"
 "http://www.w3.org/TR/2001/REC-SVG-20010904/DTD/svg10.dtd">
<svg version="1.0" xmlns="http://www.w3.org/2000/svg"
 width="103.000000pt" height="171.000000pt" viewBox="0 0 103.000000 171.000000"
 preserveAspectRatio="xMidYMid meet">

<g transform="translate(0.000000,171.000000) scale(0.100000,-0.100000)"
fill="#000000" stroke="none">
<path d="M0 855 l0 -855 515 0 515 0 0 855 0 855 -515 0 -515 0 0 -855z m294
714 c14 -7 30 -25 36 -42 6 -18 10 -137 10 -298 0 -261 -1 -269 -21 -291 -12
-13 -48 -66 -81 -118 l-59 -95 3 403 3 404 28 24 c32 27 45 29 81 13z m514
-201 c9 -8 12 -56 12 -179 0 -149 3 -185 30 -307 l29 -139 -43 -179 c-46 -190
-46 -195 -22 -391 l6 -43 -280 0 c-154 0 -280 3 -280 8 0 4 16 57 34 118 l34
112 -75 73 c-89 88 -107 119 -100 170 6 45 161 304 195 327 25 16 80 17 226 3
75 -7 93 -12 108 -31 23 -28 23 -52 0 -80 -16 -20 -27 -23 -88 -21 -38 1 -83
4 -100 7 -29 5 -35 1 -72 -47 -22 -29 -39 -56 -37 -59 2 -4 29 -2 59 3 66 12
151 -3 189 -34 31 -24 56 -26 36 -3 -30 36 -92 57 -171 58 l-77 1 23 30 24 30
103 -3 c153 -6 144 -25 140 302 l-3 264 23 16 c23 16 52 14 77 -6z m-339 -163
c38 -19 41 -30 41 -141 l0 -94 -75 0 -75 0 0 98 c0 101 6 119 45 140 26 15 31
15 64 -3z m187 -78 c24 -21 28 -32 32 -106 l5 -83 -24 7 c-13 5 -49 11 -79 14
l-55 6 -3 63 c-3 58 -1 65 27 92 36 36 61 38 97 7z"/>
</g>
</svg>
